<?xml version="1.0" encoding="utf-8"?>
<!-- Generator: Adobe Illustrator 23.0.1, SVG Export Plug-In . SVG Version: 6.00 Build 0)  -->
<svg version="1.1" id="Layer_1" xmlns="http://www.w3.org/2000/svg" xmlns:xlink="http://www.w3.org/1999/xlink" x="0px" y="0px"
	 viewBox="0 0 256 128" enable-background="new 0 0 256 128" xml:space="preserve">
<rect fill="#999999" width="64" height="64"/>
<rect y="64" fill="#999999" width="64" height="64"/>
<rect x="64" fill="#999999" width="64" height="64"/>
<rect x="64" y="64" fill="#999999" width="64" height="64"/>
<rect x="128" fill="#999999" width="64" height="64"/>
<rect x="128" y="64" fill="#999999" width="64" height="64"/>
<rect x="192" fill="#999999" width="64" height="64"/>
<rect x="192" y="64" fill="#999999" width="64" height="64"/>
<circle fill="#FFFFFF" stroke="#000000" stroke-miterlimit="10" cx="32" cy="96" r="16.9"/>
<polygon fill="#FFFFFF" stroke="#000000" stroke-miterlimit="10" points="106.6,13.6 85.4,13.6 74.7,32 85.4,50.4 106.6,50.4 
	117.3,32 "/>
<path fill="#FFFFFF" stroke="#000000" stroke-miterlimit="10" d="M101.7,76.1H90.3c-3.1,0-5.9,1.6-7.4,4.3l-5.7,9.9
	c-1.5,2.6-1.5,5.9,0,8.5l5.7,9.9c1.5,2.6,4.3,4.3,7.4,4.3h11.4c3.1,0,5.9-1.6,7.4-4.3l5.7-9.9c1.5-2.6,1.5-5.9,0-8.5l-5.7-9.9
	C107.6,77.7,104.8,76.1,101.7,76.1z"/>
<polygon fill="#FFFFFF" stroke="#000000" stroke-miterlimit="10" points="159.7,13.6 165.6,25.7 179,27.7 169.3,37.1 171.6,50.4 
	159.7,44.1 147.7,50.4 150,37.1 140.3,27.7 153.7,25.7 "/>
<path fill="#FFFFFF" stroke="#000000" stroke-miterlimit="10" d="M162.1,81.1l2.9,5.8c0.4,0.8,1.2,1.4,2.1,1.5l6.4,0.9
	c2.3,0.3,3.2,3.1,1.5,4.7l-4.6,4.5c-0.6,0.6-0.9,1.5-0.8,2.4l1.1,6.4c0.4,2.2-2,4-4,2.9l-5.7-3c-0.8-0.4-1.8-0.4-2.6,0l-5.7,3
	c-2,1.1-4.4-0.7-4-2.9l1.1-6.4c0.2-0.9-0.1-1.8-0.8-2.4l-4.6-4.5c-1.6-1.6-0.7-4.4,1.5-4.7l6.4-0.9c0.9-0.1,1.7-0.7,2.1-1.5l2.9-5.8
	C158.2,79.1,161.1,79.1,162.1,81.1z"/>
<rect x="15.4" y="13.9" fill="#FFFFFF" stroke="#000000" stroke-miterlimit="10" width="36.3" height="36.3"/>
</svg>
