<?xml version="1.0" standalone="no"?><!-- Generator: Gravit.io --><svg xmlns="http://www.w3.org/2000/svg" xmlns:xlink="http://www.w3.org/1999/xlink" style="isolation:isolate" viewBox="0 0 302.115 329.636" width="302.115" height="329.636"><defs><clipPath id="_clipPath_JtVBoPrVRoC6jVhiXesMuB8sNP0O5pc4"><rect width="302.115" height="329.636"/></clipPath></defs><g clip-path="url(#_clipPath_JtVBoPrVRoC6jVhiXesMuB8sNP0O5pc4)"><linearGradient id="_lgradient_2" x1="0.29089341769086974" y1="0.8909005347788189" x2="0.9530978754917433" y2="0.3761145771816029" gradientTransform="matrix(297.115,0,0,297.847,0,31.79)" gradientUnits="userSpaceOnUse"><stop offset="0%" stop-opacity="1" style="stop-color:rgb(128,0,0)"/><stop offset="100%" stop-opacity="1" style="stop-color:rgb(255,0,0)"/></linearGradient><path d=" M 21.264 233.464 C -0.359 188.502 -9.376 133.172 12.938 86.736 C 30.537 53.087 68.365 35.344 105.076 33.111 C 164.09 26.815 229.399 42.669 269.742 88.505 C 296.235 119.254 305.103 164.601 289.21 202.383 C 271.107 247.765 230.16 278.419 190.762 304.562 C 162.039 323.029 124.473 338.791 91.027 323.43 C 55.618 305.637 38.862 266.725 21.264 233.464 Z " fill="url(#_lgradient_2)"/><path d=" M 274.217 157.083 C 261.177 169.927 246.059 140.733 239.169 127.22 C 232.401 115.1 242.552 102.009 255.666 111.407 C 264.401 119.521 286.618 144.868 274.217 157.083 L 274.217 157.083 Z " fill="rgb(255,255,255)" fill-opacity="0.64705882"/><radialGradient id="_rgradient_1" fx="0.21583849371693714" fy="0.9107246211868378" cx="0.5" cy="0.5" r="0.5" gradientTransform="matrix(117.215,0,0,63.697,119.795,50.93)" gradientUnits="userSpaceOnUse"><stop offset="0%" stop-opacity="1" style="stop-color:rgb(136,0,0)"/><stop offset="100%" stop-opacity="0" style="stop-color:rgb(0,0,0)"/></radialGradient><path d=" M 185.074 56.112 C 221.268 68.814 245.268 88.814 234.359 102.54 C 223.451 116.267 203.268 118.814 172.217 107.54 C 147.931 100.397 116.502 76.826 120.074 66.826 C 123.645 56.826 148.879 43.41 185.074 56.112 Z " fill="url(#_rgradient_1)"/><linearGradient id="_lgradient_3" x1="0.0052550470369499" y1="0.9750006254117055" x2="0.8778219045048372" y2="0.29717969005609146" gradientTransform="matrix(122.156,0,0,101.857,162.691,0.002)" gradientUnits="userSpaceOnUse"><stop offset="0%" stop-opacity="1" style="stop-color:rgb(55,39,0)"/><stop offset="100%" stop-opacity="1" style="stop-color:rgb(184,237,0)"/></linearGradient><path d=" M 163.333 99.312 C 198.463 39.107 270.218 -0.698 269.922 0.011 L 284.847 10.933 C 237.216 27.894 199.247 61.846 167.851 96.342 C 166.118 98.169 164.397 100.007 162.691 101.859" fill="url(#_lgradient_3)"/></g></svg>