<?xml version="1.0" standalone="no"?><!-- Generator: Gravit.io --><svg xmlns="http://www.w3.org/2000/svg" xmlns:xlink="http://www.w3.org/1999/xlink" style="isolation:isolate" viewBox="0 0 610 369" width="610" height="369"><defs><clipPath id="_clipPath_ocfpV9GGZ3vkT7f8U4u2BSBhYbXnJy0v"><rect width="610" height="369"/></clipPath></defs><g clip-path="url(#_clipPath_ocfpV9GGZ3vkT7f8U4u2BSBhYbXnJy0v)"><path d=" M 86.098 44 L 86.098 308 L 594.787 308" fill="none" vector-effect="non-scaling-stroke" stroke-width="1" stroke="rgb(0,0,0)" stroke-linejoin="miter" stroke-linecap="square" stroke-miterlimit="3"/><line x1="86.098" y1="308" x2="86.098" y2="315" vector-effect="non-scaling-stroke" stroke-width="1" stroke="rgb(0,0,0)" stroke-linejoin="miter" stroke-linecap="square" stroke-miterlimit="3"/><line x1="187.836" y1="308" x2="187.836" y2="315" vector-effect="non-scaling-stroke" stroke-width="1" stroke="rgb(0,0,0)" stroke-linejoin="miter" stroke-linecap="square" stroke-miterlimit="3"/><line x1="289.574" y1="308" x2="289.574" y2="315" vector-effect="non-scaling-stroke" stroke-width="1" stroke="rgb(0,0,0)" stroke-linejoin="miter" stroke-linecap="square" stroke-miterlimit="3"/><line x1="391.311" y1="308" x2="391.311" y2="315" vector-effect="non-scaling-stroke" stroke-width="1" stroke="rgb(0,0,0)" stroke-linejoin="miter" stroke-linecap="square" stroke-miterlimit="3"/><line x1="493.049" y1="308" x2="493.049" y2="315" vector-effect="non-scaling-stroke" stroke-width="1" stroke="rgb(0,0,0)" stroke-linejoin="miter" stroke-linecap="square" stroke-miterlimit="3"/><line x1="594.787" y1="308" x2="594.787" y2="315" vector-effect="non-scaling-stroke" stroke-width="1" stroke="rgb(0,0,0)" stroke-linejoin="miter" stroke-linecap="square" stroke-miterlimit="3"/><line x1="86" y1="86" x2="80" y2="86" vector-effect="non-scaling-stroke" stroke-width="1" stroke="rgb(0,0,0)" stroke-linejoin="miter" stroke-linecap="square" stroke-miterlimit="3"/><line x1="86.098" y1="174" x2="80.393" y2="174" vector-effect="non-scaling-stroke" stroke-width="1" stroke="rgb(0,0,0)" stroke-linejoin="miter" stroke-linecap="square" stroke-miterlimit="3"/><line x1="86.098" y1="262" x2="80.393" y2="262" vector-effect="non-scaling-stroke" stroke-width="1" stroke="rgb(0,0,0)" stroke-linejoin="miter" stroke-linecap="square" stroke-miterlimit="3"/><line x1="86.098" y1="308" x2="80.393" y2="308" vector-effect="non-scaling-stroke" stroke-width="1" stroke="rgb(0,0,0)" stroke-linejoin="miter" stroke-linecap="square" stroke-miterlimit="3"/><g transform="matrix(1,0,0,1,172.623,315)"><text transform="matrix(1,0,0,1,11.068,13.267)" style="font-family:'Open Sans';font-weight:400;font-size:11px;font-style:normal;fill:#000000;stroke:none;">1</text></g><g transform="matrix(1,0,0,1,274.361,315)"><text transform="matrix(1,0,0,1,11.068,13.267)" style="font-family:'Open Sans';font-weight:400;font-size:11px;font-style:normal;fill:#000000;stroke:none;">3</text></g><g transform="matrix(1,0,0,1,376.098,315)"><text transform="matrix(1,0,0,1,11.068,13.267)" style="font-family:'Open Sans';font-weight:400;font-size:11px;font-style:normal;fill:#000000;stroke:none;">5</text></g><g transform="matrix(1,0,0,1,477.836,315)"><text transform="matrix(1,0,0,1,7.924,13.267)" style="font-family:'Open Sans';font-weight:400;font-size:11px;font-style:normal;fill:#000000;stroke:none;">10</text></g><g transform="matrix(1,0,0,1,579.574,315)"><text transform="matrix(1,0,0,1,4.779,13.267)" style="font-family:'Open Sans';font-weight:400;font-size:11px;font-style:normal;fill:#000000;stroke:none;">15+</text></g><g transform="matrix(1,0,0,1,34.967,274)"><text transform="matrix(1,0,0,1,0,13.267)" style="font-family:'Open Sans';font-weight:400;font-size:11px;font-style:normal;fill:#000000;stroke:none;">Bachelor</text></g><g transform="matrix(1,0,0,1,34.967,210.326)"><text transform="matrix(1,0,0,1,7.585,13.267)" style="font-family:'Open Sans';font-weight:400;font-size:11px;font-style:normal;fill:#000000;stroke:none;">Master</text></g><g transform="matrix(1,0,0,1,34.967,121.992)"><text transform="matrix(1,0,0,1,22.033,13.267)" style="font-family:'Open Sans';font-weight:400;font-size:11px;font-style:normal;fill:#000000;stroke:none;">PhD</text></g><g transform="matrix(1,0,0,1,12,51.224)"><text transform="matrix(1,0,0,1,22.603,13.267)" style="font-family:'Open Sans';font-weight:400;font-size:11px;font-style:normal;fill:#000000;stroke:none;">PostPhD</text></g><g transform="matrix(0,-1,1,0,8,225.386)"><text transform="matrix(1,0,0,1,0,14.964)" style="font-family:'Open Sans';font-weight:400;font-size:14px;font-style:normal;fill:#000000;stroke:none;">education </text></g><g transform="matrix(1,0,0,1,241.188,337)"><text transform="matrix(1,0,0,1,0,14.964)" style="font-family:'Open Sans';font-weight:400;font-size:14px;font-style:normal;fill:#000000;stroke:none;">Working Experience ( year )</text></g><g transform="matrix(1,0,0,1,145.561,37.196)"><text transform="matrix(1,0,0,1,0,25.652)" style="font-family:'Open Sans';font-weight:400;font-size:24px;font-style:normal;fill:#000000;stroke:none;">Linkedin profile</text></g></g></svg>