<?xml version="1.0" standalone="no"?><!-- Generator: Gravit.io --><svg xmlns="http://www.w3.org/2000/svg" xmlns:xlink="http://www.w3.org/1999/xlink" style="isolation:isolate" viewBox="0 0 610 369" width="610" height="369"><defs><clipPath id="_clipPath_oFh939VRtZCsef5yt5Cyr2v7ENhgfKYV"><rect width="610" height="369"/></clipPath></defs><g clip-path="url(#_clipPath_oFh939VRtZCsef5yt5Cyr2v7ENhgfKYV)"><g><path d=" M 59 44 L 59 308 L 594 308" fill="none" vector-effect="non-scaling-stroke" stroke-width="1" stroke="rgb(0,0,0)" stroke-linejoin="miter" stroke-linecap="square" stroke-miterlimit="3"/><line x1="59" y1="308" x2="59" y2="315" vector-effect="non-scaling-stroke" stroke-width="1" stroke="rgb(0,0,0)" stroke-linejoin="miter" stroke-linecap="square" stroke-miterlimit="3"/><line x1="166" y1="308" x2="166" y2="315" vector-effect="non-scaling-stroke" stroke-width="1" stroke="rgb(0,0,0)" stroke-linejoin="miter" stroke-linecap="square" stroke-miterlimit="3"/><line x1="273" y1="308" x2="273" y2="315" vector-effect="non-scaling-stroke" stroke-width="1" stroke="rgb(0,0,0)" stroke-linejoin="miter" stroke-linecap="square" stroke-miterlimit="3"/><line x1="380" y1="308" x2="380" y2="315" vector-effect="non-scaling-stroke" stroke-width="1" stroke="rgb(0,0,0)" stroke-linejoin="miter" stroke-linecap="square" stroke-miterlimit="3"/><line x1="487" y1="308" x2="487" y2="315" vector-effect="non-scaling-stroke" stroke-width="1" stroke="rgb(0,0,0)" stroke-linejoin="miter" stroke-linecap="square" stroke-miterlimit="3"/><line x1="594" y1="308" x2="594" y2="315" vector-effect="non-scaling-stroke" stroke-width="1" stroke="rgb(0,0,0)" stroke-linejoin="miter" stroke-linecap="square" stroke-miterlimit="3"/><line x1="59" y1="44" x2="53" y2="44" vector-effect="non-scaling-stroke" stroke-width="1" stroke="rgb(0,0,0)" stroke-linejoin="miter" stroke-linecap="square" stroke-miterlimit="3"/><line x1="59" y1="132" x2="53" y2="132" vector-effect="non-scaling-stroke" stroke-width="1" stroke="rgb(0,0,0)" stroke-linejoin="miter" stroke-linecap="square" stroke-miterlimit="3"/><line x1="59" y1="220" x2="53" y2="220" vector-effect="non-scaling-stroke" stroke-width="1" stroke="rgb(0,0,0)" stroke-linejoin="miter" stroke-linecap="square" stroke-miterlimit="3"/><line x1="59" y1="308" x2="53" y2="308" vector-effect="non-scaling-stroke" stroke-width="1" stroke="rgb(0,0,0)" stroke-linejoin="miter" stroke-linecap="square" stroke-miterlimit="3"/><g transform="matrix(1,0,0,1,21,297)"><text transform="matrix(1,0,0,1,23.71,13.267)" style="font-family:'Open Sans';font-weight:400;font-size:11px;font-style:normal;fill:#000000;stroke:none;">0</text></g><g transform="matrix(1,0,0,1,150,315)"><text transform="matrix(1,0,0,1,11.855,13.267)" style="font-family:'Open Sans';font-weight:400;font-size:11px;font-style:normal;fill:#000000;stroke:none;">1</text></g><g transform="matrix(1,0,0,1,257,315)"><text transform="matrix(1,0,0,1,11.855,13.267)" style="font-family:'Open Sans';font-weight:400;font-size:11px;font-style:normal;fill:#000000;stroke:none;">3</text></g><g transform="matrix(1,0,0,1,364,315)"><text transform="matrix(1,0,0,1,11.855,13.267)" style="font-family:'Open Sans';font-weight:400;font-size:11px;font-style:normal;fill:#000000;stroke:none;">5</text></g><g transform="matrix(1,0,0,1,43,315)"><text transform="matrix(1,0,0,1,11.855,13.267)" style="font-family:'Open Sans';font-weight:400;font-size:11px;font-style:normal;fill:#000000;stroke:none;">0</text></g><g transform="matrix(1,0,0,1,471,315)"><text transform="matrix(1,0,0,1,8.71,13.267)" style="font-family:'Open Sans';font-weight:400;font-size:11px;font-style:normal;fill:#000000;stroke:none;">10</text></g><g transform="matrix(1,0,0,1,578,315)"><text transform="matrix(1,0,0,1,5.566,13.267)" style="font-family:'Open Sans';font-weight:400;font-size:11px;font-style:normal;fill:#000000;stroke:none;">10+</text></g><g transform="matrix(1,0,0,1,21,211)"><text transform="matrix(1,0,0,1,17.421,13.267)" style="font-family:'Open Sans';font-weight:400;font-size:11px;font-style:normal;fill:#000000;stroke:none;">20</text></g><g transform="matrix(1,0,0,1,21,123)"><text transform="matrix(1,0,0,1,17.421,13.267)" style="font-family:'Open Sans';font-weight:400;font-size:11px;font-style:normal;fill:#000000;stroke:none;">50</text></g><g transform="matrix(1,0,0,1,21,35)"><text transform="matrix(1,0,0,1,11.131,13.267)" style="font-family:'Open Sans';font-weight:400;font-size:11px;font-style:normal;fill:#000000;stroke:none;">100</text></g><g transform="matrix(0,-1,1,0,0,229)"><text transform="matrix(1,0,0,1,0,14.964)" style="font-family:'Open Sans';font-weight:400;font-size:14px;font-style:normal;fill:#000000;stroke:none;">Company Rank</text></g><g transform="matrix(1,0,0,1,108.054,10.112)"><text transform="matrix(1,0,0,1,0,11.757)" style="font-family:'Open Sans';font-weight:400;font-size:11px;font-style:normal;fill:#000000;stroke:none;">European</text></g><g transform="matrix(1,0,0,1,179.04,10.112)"><text transform="matrix(1,0,0,1,0,11.757)" style="font-family:'Open Sans';font-weight:400;font-size:11px;font-style:normal;fill:#000000;stroke:none;">African</text></g><g transform="matrix(1,0,0,1,392,10.112)"><text transform="matrix(1,0,0,1,0,11.757)" style="font-family:'Open Sans';font-weight:400;font-size:11px;font-style:normal;fill:#000000;stroke:none;">Indian</text></g><g transform="matrix(1,0,0,1,321.013,10.112)"><text transform="matrix(1,0,0,1,0,11.757)" style="font-family:'Open Sans';font-weight:400;font-size:11px;font-style:normal;fill:#000000;stroke:none;">American</text></g><g transform="matrix(1,0,0,1,250.027,10.112)"><text transform="matrix(1,0,0,1,0,11.757)" style="font-family:'Open Sans';font-weight:400;font-size:11px;font-style:normal;fill:#000000;stroke:none;">Chinese</text></g><circle vector-effect="non-scaling-stroke" cx="97.77695167286271" cy="18.723048327137572" r="4.276951672862424" fill="rgb(235,235,235)" stroke-width="1" stroke="rgb(0,0,0)" stroke-linejoin="miter" stroke-linecap="square" stroke-miterlimit="3"/><circle vector-effect="non-scaling-stroke" cx="169.4019516728627" cy="18.723048327137572" r="4.276951672862424" fill="rgb(91,91,91)"/><circle vector-effect="non-scaling-stroke" cx="241.0269516728627" cy="18.723048327137572" r="4.276951672862424" fill="rgb(255,153,0)"/><circle vector-effect="non-scaling-stroke" cx="312.6519516728627" cy="18.723048327137572" r="4.276951672862424" fill="rgb(255,80,80)"/><circle vector-effect="non-scaling-stroke" cx="384.2769516728627" cy="18.723048327137572" r="4.276951672862424" fill="rgb(152,0,0)"/></g></g></svg>