<?xml version="1.0" encoding="utf-8"?>
<!-- Generator: Adobe Illustrator 23.0.1, SVG Export Plug-In . SVG Version: 6.00 Build 0)  -->
<svg version="1.2" baseProfile="tiny" id="Layer_1" xmlns="http://www.w3.org/2000/svg" xmlns:xlink="http://www.w3.org/1999/xlink"
	 x="0px" y="0px" viewBox="0 0 449.4 95" xml:space="preserve">
<path fill="#F46A6A" stroke="#FFCF1F" stroke-miterlimit="10" d="M19.6,45.4c-0.1-0.1-0.1-0.2-0.2-0.3C14.9,37,13,26.8,13.8,14.4
	c12.9-1.8,24.3,0.9,34,8.1c0,0,0.1,0,0.1,0.1l0,0l0,0c9.7,7.1,18.5,15.5,26.6,25l-34,29.1C31,63.9,24.1,53.5,19.6,45.4L19.6,45.4z"
	/>
<path fill="#F46A6A" stroke="#FFCF1F" stroke-miterlimit="10" d="M30.8,67.8l16.2,21c-5.3,0.2-10.1-1.7-14.6-5.7
	C25.7,77.1,26.2,71.5,30.8,67.8z"/>
<path fill="#F46A6A" stroke="#FFCF1F" stroke-miterlimit="10" d="M48.4,55.2c-3.6,3.3-1,9.3,4,15.4c3.5,4.3,9.5,7,17.8,8.1
	c0.6-6.7-1.2-12.9-5.7-18.6C59.1,53,52.7,52,48.4,55.2z"/>
<path fill="#F46A6A" stroke="#FFCF1F" stroke-miterlimit="10" d="M68.8,39.5l17,13.7c3.5-5.6,2.9-10.2-1.6-13.7
	C79.8,36.2,73,36.2,68.8,39.5z"/>
<path fill="#FFFFFF" stroke="#FFCF1F" stroke-miterlimit="10" d="M32,36.5l-2.9,19.1l19.3-2.5l-5.8-5.9l-8.1,3.1l2.9-8.3L32,36.5z"
	/>
<path fill="#FFFFFF" stroke="#FFCF1F" stroke-miterlimit="10" d="M34,32.9l19.2-2.6l-2.7,19.3l-5.8-5.9l3.2-8l-8.3,2.8L34,32.9z"/>
<text transform="matrix(1 0 0 1 92 71.03)" fill="#D9D9D9" font-family="'Slackey-Regular'" font-size="61px">relaxslow</text>
</svg>
