<?xml version="1.0" encoding="utf-8"?>
<!-- Generator: Adobe Illustrator 23.0.1, SVG Export Plug-In . SVG Version: 6.00 Build 0)  -->
<svg version="1.1" id="Layer_1" xmlns="http://www.w3.org/2000/svg" xmlns:xlink="http://www.w3.org/1999/xlink" x="0px" y="0px"
	 viewBox="0 0 93.9 87.9" style="enable-background:new 0 0 93.9 87.9;" xml:space="preserve">
<style type="text/css">
	.st0{fill:#F46A6A;stroke:#BF5000;stroke-miterlimit:10;}
	.st1{fill:#FFFFFF;stroke:#BF5000;stroke-miterlimit:10;}
	.st2{fill:#D9D9D9;stroke:#BF5000;stroke-miterlimit:10;}
	.st3{fill:#F46A6A;}
	.st4{fill:#FFFFFF;}
</style>
<path class="st0" d="M19.6,183.4c-0.1-0.1-0.1-0.2-0.2-0.3c-4.5-8.1-6.4-18.3-5.6-30.7c12.9-1.8,24.3,0.9,34,8.1c0,0,0.1,0,0.1,0.1
	l0,0l0,0c9.7,7.1,18.5,15.5,26.6,25l-34,29.1C31,201.9,24.1,191.5,19.6,183.4L19.6,183.4z"/>
<path class="st0" d="M30.8,205.8l16.2,21c-5.3,0.2-10.1-1.7-14.6-5.7C25.7,215.1,26.2,209.5,30.8,205.8z"/>
<path class="st0" d="M48.4,193.2c-3.6,3.3-1,9.3,4,15.4c3.5,4.3,9.5,7,17.8,8.1c0.6-6.7-1.2-12.9-5.7-18.6
	C59.1,191,52.7,190,48.4,193.2z"/>
<path class="st0" d="M68.8,177.5l17,13.7c3.5-5.6,2.9-10.2-1.6-13.7C79.8,174.2,73,174.2,68.8,177.5z"/>
<path class="st1" d="M32,174.5l-2.9,19.1l19.3-2.5l-5.8-5.9l-8.1,3.1l2.9-8.3L32,174.5z"/>
<path class="st1" d="M34,170.9l19.2-2.6l-2.7,19.3l-5.8-5.9l3.2-8l-8.3,2.8L34,170.9z"/>
<g>
	<path class="st2" d="M129.5,183.9v1.4l-11.5,0.5c0.1-0.5,0.2-1.1,0.2-1.8c0-1-0.1-1.6-0.4-1.9c-0.3-0.3-0.9-0.4-1.8-0.4
		c-1.4,0-2.8,0.2-4.5,0.7c-1.6,0.5-3.1,0.9-4.3,1.4c-0.2,1.7-0.4,3.5-0.5,5.2s-0.2,3.5-0.2,5.2c0,1.9,0,3.9,0,5.8s0,3.9,0.1,5.8
		l-10.2,0.7c-0.2-2.5-0.4-5.1-0.6-7.6s-0.4-5.1-0.5-7.6c-0.2-3.4-0.5-6.7-0.8-10.1c-0.3-3.4-0.6-6.7-1-10.2c2.3,0.2,4.5,0.4,6.8,0.7
		c2.2,0.3,4.5,0.7,6.8,1.1l-0.3,5c1.2-1,2.3-1.8,3.4-2.5s2.2-1.3,3.3-1.8s2.3-0.8,3.6-1c1.3-0.2,2.7-0.3,4.2-0.3
		c1,0,2.1,0.1,3.2,0.3c1.1,0.2,2.1,0.7,2.9,1.5c0.4,0.4,0.7,1.1,1,2c0.3,0.9,0.5,1.8,0.7,2.8s0.3,1.9,0.3,2.9
		C129.5,182.6,129.5,183.3,129.5,183.9z"/>
	<path class="st2" d="M173.4,186.9c-5.2,0.3-10.4,0.5-15.5,0.7c-5.2,0.2-10.3,0.4-15.5,0.6c0,0.2-0.1,0.3-0.1,0.5s0,0.3,0,0.5
		c0,1.4,0.3,2.4,0.9,3.1c0.6,0.7,1.4,1.2,2.3,1.5c0.9,0.3,1.9,0.5,3,0.5s2.1,0.1,3.1,0.1c2.7,0,5.3-0.1,8-0.3c2.7-0.2,5.3-0.4,8-0.6
		l0.5,9.5c-2.6,0.1-5.2,0.2-7.8,0.3c-2.6,0.1-5.2,0.1-7.8,0.1c-0.6,0-1.6,0-3.1,0s-3.1-0.1-4.8-0.2c-1.7-0.1-3.3-0.2-4.7-0.4
		c-1.5-0.2-2.4-0.4-2.9-0.7c-1.2-0.7-2.2-1.6-2.9-2.7c-0.7-1.1-1.2-2.3-1.6-3.6c-0.4-1.3-0.6-2.7-0.8-4c-0.1-1.4-0.2-2.7-0.3-4
		c0-0.2-0.1-0.4,0-0.6c0-0.2,0-0.4,0-0.6c0-2.1,0.2-4.1,0.7-5.9s1.3-3.6,2.5-5.3c0.8-1.2,2.1-2.2,3.7-3c1.6-0.8,3.4-1.4,5.3-1.9
		c1.9-0.5,3.8-0.8,5.7-1c1.9-0.2,3.6-0.3,4.9-0.3c1.2,0,2.7,0.1,4.5,0.3c1.8,0.2,3.6,0.6,5.3,1.1c1.8,0.5,3.4,1.2,4.8,2
		c1.4,0.8,2.4,1.8,2.9,3c0.1,0.2,0.2,0.6,0.3,1.2c0.1,0.6,0.2,1.2,0.3,2c0.1,0.7,0.2,1.5,0.3,2.4c0.1,0.8,0.2,1.6,0.3,2.4
		s0.1,1.4,0.2,2C173.3,186.3,173.3,186.7,173.4,186.9z M165.3,182.6c-0.2-1.7-0.7-3.1-1.3-4.1c-0.7-1-1.5-1.8-2.4-2.3
		c-1-0.5-2.1-0.8-3.3-1c-1.3-0.1-2.6-0.2-4-0.2c-0.5,0-1.1,0-1.8,0s-1.4,0.1-2.1,0.2c-0.7,0.1-1.4,0.2-2,0.4
		c-0.6,0.2-1.1,0.5-1.5,0.8c-0.3,0.2-0.5,0.6-0.7,1c-0.2,0.4-0.3,0.9-0.4,1.3c-0.1,0.4-0.2,0.9-0.3,1.4s-0.1,0.8-0.1,1.2
		c0,0.6,0.1,1.3,0.2,1.8L165.3,182.6z"/>
	<path class="st2" d="M190.6,163.2c-0.3,3.9-0.6,7.7-0.9,11.5c-0.3,3.8-0.5,7.6-0.7,11.5c-0.2,3.5-0.4,7-0.6,10.4
		c-0.2,3.4-0.4,6.9-0.6,10.4l-9.1,0.5c0-3.6,0-7.2,0-10.8c0-3.6,0-7.1-0.1-10.8c-0.1-3.6-0.2-7.2-0.5-10.8
		c-0.2-3.6-0.5-7.1-0.7-10.8L190.6,163.2z"/>
	<path class="st2" d="M238.1,182.2c0,3.3-0.1,6.7-0.4,9.9c-0.2,3.3-0.5,6.6-0.7,9.9c-4.4,0.4-8.9,0.7-13.3,1
		c-4.4,0.3-8.8,0.4-13.3,0.4c-0.4,0-1.1,0-2.2,0c-1.1,0-2.2-0.1-3.4-0.1c-1.2-0.1-2.3-0.1-3.4-0.2c-1.1-0.1-1.8-0.2-2.1-0.4
		c-1.3-0.7-2.2-1.6-2.7-2.7c-0.5-1.1-0.8-2.3-0.8-3.7c0-0.5,0-1.1,0.1-1.9c0-0.8,0.1-1.6,0.2-2.5c0.1-0.9,0.3-1.7,0.5-2.4
		c0.2-0.8,0.4-1.3,0.7-1.7c0.4-0.5,1.2-0.9,2.4-1.2c1.3-0.3,2.8-0.6,4.6-0.8s3.7-0.4,5.7-0.5c2-0.1,4-0.2,5.9-0.3s3.5-0.1,5-0.1
		s2.5,0,3.2,0c0.1-0.9,0.2-1.7,0.2-2.6c0-0.1,0-0.3,0-0.6c0-0.3,0-0.5-0.1-0.6c-0.1-0.2-0.5-0.4-1.1-0.6c-0.6-0.2-1.4-0.3-2.4-0.4
		c-0.9-0.1-1.9-0.1-3-0.2c-1.1-0.1-2.2-0.1-3.2-0.1s-1.9,0-2.7,0s-1.4,0-1.7,0c-2.5,0-5,0-7.5,0.1c-2.5,0.1-5,0.2-7.5,0.3
		c0.2-1.5,0.3-3,0.4-4.6s0.1-3.1,0-4.6c2.9-0.5,5.8-0.9,8.7-1.1s5.9-0.3,8.8-0.3c1.1,0,2.2,0,3.5,0s2.5,0.1,3.8,0.1
		c1.3,0.1,2.5,0.1,3.8,0.3c1.3,0.1,2.4,0.3,3.5,0.5c1.1,0.2,2.2,0.6,3.3,1.1s2.1,1.2,3.1,1.9c1,0.8,1.8,1.6,2.5,2.6s1.2,2,1.5,3.1
		c0,0.1,0.1,0.3,0.1,0.6s0,0.6,0,0.9c0,0.3,0,0.6,0,0.9C238.1,181.8,238.1,182,238.1,182.2z M224.8,196.2v-7.6
		c-1.2,0-2.3-0.1-3.5-0.1s-2.3,0-3.5,0c-0.2,0-0.9,0-2,0s-2.3,0.1-3.5,0.1c-1.3,0.1-2.4,0.2-3.4,0.3c-1,0.1-1.6,0.3-1.8,0.5
		c-0.2,0.3-0.3,0.6-0.4,1c-0.1,0.3-0.1,0.7-0.1,1c0,0.3,0,0.7,0.1,1.1c0,0.5,0.1,1,0.2,1.5c0.1,0.5,0.2,1,0.3,1.4
		c0.1,0.4,0.3,0.8,0.5,1c0.2,0.2,0.4,0.3,0.8,0.4c0.4,0.1,0.8,0.2,1.2,0.2c0.4,0.1,0.9,0.1,1.3,0.1c0.4,0,0.8,0,1,0c1,0,2,0,3.1-0.1
		c1.1-0.1,2.2-0.2,3.3-0.3c1.1-0.1,2.2-0.2,3.3-0.4C222.9,196.4,223.9,196.3,224.8,196.2z"/>
	<path class="st2" d="M281.6,169.5c-2.5,2.7-4.9,5.3-7.3,8c-1.3,1.4-2.6,2.8-3.9,4.1c-1.3,1.3-2.7,2.6-4,3.9
		c2.2,3.1,4.4,6.2,6.6,9.3c2.2,3.1,4.4,6.2,6.7,9.2l-11.6,0.3c-1.6-2-3.2-4-4.7-6s-3.2-3.9-4.9-5.7l-11.3,10.7
		c-1.5-0.1-3.1-0.2-4.7-0.3c-1.6-0.1-3.2-0.1-4.8-0.1c0,0,0.2-0.3,0.5-0.7c0.4-0.4,0.8-0.9,1.3-1.5c0.5-0.6,1.1-1.2,1.8-1.9
		s1.3-1.3,1.9-2c0.6-0.6,1.1-1.2,1.6-1.6c0.5-0.4,0.8-0.8,0.9-1c1.2-1.3,2.4-2.7,3.6-4c1.2-1.4,2.4-2.7,3.6-4.1l-13.9-16l14.1-0.4
		l6,9.7c0.8-0.9,1.6-1.7,2.2-2.5c0.6-0.7,1.2-1.5,1.8-2.2c0.6-0.7,1.1-1.5,1.7-2.2c0.6-0.8,1.2-1.7,1.8-2.7L281.6,169.5z"/>
	<path class="st2" d="M315.3,167.7l-0.4,7.7c-1.2-0.1-2.5-0.1-3.7-0.2c-1.2,0-2.5-0.1-3.7-0.1c-0.5,0-1.3,0-2.2,0
		c-1,0-2,0.1-3.2,0.1s-2.4,0.1-3.6,0.2c-1.2,0.1-2.4,0.2-3.4,0.2c-1,0.1-1.9,0.2-2.6,0.3c-0.7,0.1-1.2,0.2-1.3,0.4
		c-0.5,0.5-0.8,1.1-0.8,1.8c0,0.4,0.1,0.8,0.4,1.1c0.1,0.1,0.5,0.2,1.3,0.3s1.8,0.1,2.9,0.2c1.2,0.1,2.4,0.1,3.8,0.1s2.7,0,3.9,0.1
		c1.3,0,2.4,0,3.3,0.1c1,0,1.7,0.1,2.1,0.1c1.5,0.2,2.7,0.6,3.6,1.3s1.6,1.5,2.1,2.5s0.8,2.2,0.9,3.4c0.1,1.3,0.2,2.6,0.2,3.9
		c0,0.6,0,1.4-0.1,2.3s-0.2,1.7-0.4,2.6c-0.2,0.9-0.5,1.7-0.9,2.4c-0.4,0.8-0.8,1.4-1.3,1.8c-0.6,0.5-1.6,0.9-2.9,1.2
		c-1.3,0.3-2.8,0.6-4.3,0.8c-1.5,0.2-3,0.3-4.4,0.4s-2.5,0.1-3.3,0.1c-2.6,0-5.2-0.1-7.9-0.4c-2.6-0.3-5.2-0.6-7.8-1v-11.3
		c2.5,0.5,5,0.8,7.5,0.9s5.1,0.2,7.6,0.4c0.5,0,1.3,0.1,2.4,0.1s2.1,0,3.2-0.1c1.1-0.1,2-0.2,2.9-0.4s1.4-0.5,1.6-0.8
		c0.1-0.1,0.1-0.3,0.1-0.4c0-0.2,0-0.3,0-0.4c0-0.3,0-0.7-0.1-1.2s-0.2-0.9-0.4-1.2c0,0-0.2-0.1-0.4-0.1c-0.2,0-0.4,0-0.4,0
		c-2.2-0.1-4.4-0.2-6.7-0.2c-2.2,0-4.5-0.1-6.7-0.3c-0.9-0.1-1.8-0.2-2.8-0.3c-0.9-0.1-1.9-0.2-2.8-0.4c-0.8-0.2-1.4-0.3-2.1-0.5
		c-0.6-0.2-1.2-0.5-1.6-0.8c-0.5-0.3-0.8-0.7-1.2-1.2c-0.3-0.5-0.5-1.2-0.7-2c-0.1-0.3-0.1-0.5-0.1-0.8c0-0.3,0-0.5,0-0.9
		c0-0.7,0-1.5,0.1-2.4c0.1-0.9,0.2-1.8,0.4-2.7c0.2-0.9,0.5-1.8,0.8-2.6c0.3-0.8,0.8-1.5,1.3-2c0.4-0.4,1-0.7,1.9-0.9s2-0.4,3.2-0.6
		c1.2-0.2,2.5-0.3,3.8-0.4s2.7-0.2,3.9-0.3c1.3-0.1,2.4-0.1,3.4-0.1s1.8,0,2.3,0c2.2,0,4.4,0,6.6,0.1
		C311,167.5,313.1,167.6,315.3,167.7z"/>
	<path class="st2" d="M333.7,163.2c-0.3,3.9-0.6,7.7-0.9,11.5s-0.5,7.6-0.7,11.5c-0.2,3.5-0.4,7-0.6,10.4c-0.2,3.4-0.4,6.9-0.6,10.4
		l-9.1,0.5c0-3.6,0-7.2,0-10.8c0-3.6,0-7.1-0.1-10.8c-0.1-3.6-0.2-7.2-0.5-10.8c-0.2-3.6-0.5-7.1-0.7-10.8L333.7,163.2z"/>
	<path class="st2" d="M382.9,185.4c0,0.3,0,0.6,0,0.9s0,0.6-0.1,0.9c0,0.6-0.1,1.5-0.3,2.7c-0.2,1.3-0.4,2.6-0.7,4
		c-0.3,1.4-0.6,2.6-1,3.8c-0.4,1.2-0.8,1.9-1.3,2.2c-0.2,0.2-1,0.3-2.4,0.4c-1.4,0.1-3,0.2-5,0.4c-2,0.1-4.1,0.2-6.4,0.3
		c-2.3,0.1-4.5,0.1-6.6,0.2c-2.1,0.1-3.9,0.1-5.5,0.1s-2.6,0.1-3.1,0.1c-0.2,0-0.6,0-1.2,0s-1.2,0-1.8,0c-0.6,0-1.2,0-1.8-0.1
		c-0.6,0-1-0.1-1.2-0.2c-0.6-0.2-1.1-0.5-1.7-1s-1.1-1-1.5-1.5c-0.5-0.6-0.9-1.2-1.3-1.8c-0.4-0.6-0.6-1.2-0.8-1.8
		c-0.1-0.4-0.2-1.1-0.3-2c-0.1-0.9-0.1-1.8-0.2-2.8c0-1-0.1-1.9-0.1-2.8c0-0.9,0-1.6,0-2.1c0-0.8,0-1.8,0.1-3.1
		c0-1.3,0.2-2.7,0.4-4.1c0.2-1.4,0.5-2.7,0.9-3.9s0.9-2.1,1.6-2.5c0.3-0.2,0.9-0.4,1.8-0.5c0.9-0.2,1.9-0.3,3.1-0.4
		c1.2-0.1,2.5-0.2,3.8-0.3c1.3-0.1,2.7-0.1,4-0.1s2.5,0,3.6,0s2,0,2.7,0.1c0.6,0,1.4,0.1,2.6,0.1c1.1,0,2.4,0,3.7,0.1
		c1.4,0,2.8,0.1,4.3,0.2c1.5,0.1,2.8,0.2,4.1,0.4c1.3,0.2,2.4,0.4,3.4,0.6c1,0.3,1.6,0.6,1.9,0.9c0.5,0.6,0.9,1.4,1.3,2.5
		c0.3,1.1,0.6,2.3,0.7,3.5c0.2,1.3,0.3,2.5,0.4,3.7C382.9,183.7,382.9,184.7,382.9,185.4z M370.3,186.7c0-0.5,0-1-0.1-1.7
		c0-0.6-0.1-1.3-0.2-1.9c-0.1-0.7-0.2-1.3-0.4-1.9c-0.2-0.6-0.4-1.1-0.6-1.5c-0.3-0.5-0.9-0.9-1.8-1.2c-0.9-0.3-1.9-0.5-3-0.6
		c-1.1-0.1-2.2-0.2-3.2-0.3c-1.1,0-1.8-0.1-2.4-0.1c-0.3,0-0.8,0-1.5,0s-1.5,0-2.2,0.1c-0.8,0-1.5,0.1-2.2,0.2
		c-0.7,0.1-1.1,0.2-1.3,0.3c-0.4,0.2-0.6,0.6-0.8,1.1c-0.2,0.5-0.3,1-0.4,1.6c-0.1,0.6-0.2,1.2-0.2,1.8c0,0.6,0,1,0,1.4
		c0,0.4,0,1,0.1,1.9c0.1,0.9,0.1,1.9,0.2,3c0.1,1.1,0.2,2,0.4,2.9c0.2,0.9,0.4,1.4,0.6,1.7c0.3,0.3,0.8,0.6,1.6,0.8
		c0.8,0.2,1.6,0.4,2.5,0.5c0.9,0.1,1.8,0.2,2.6,0.3c0.8,0.1,1.4,0.1,1.8,0.1c0.6,0,1.4,0,2.3-0.1c0.9,0,1.8-0.1,2.7-0.3
		c0.9-0.2,1.7-0.4,2.5-0.7c0.8-0.3,1.4-0.7,1.9-1.1c0.3-0.3,0.5-0.7,0.7-1.3c0.2-0.6,0.3-1.2,0.4-1.8c0.1-0.6,0.1-1.3,0.1-1.9
		C370.2,187.5,370.3,187,370.3,186.7z"/>
	<path class="st2" d="M438.9,168.4c-1.2,5.6-2.3,11.2-3.3,16.7c-1.1,5.6-2.2,11.1-3.4,16.7l-12.4,0.2l-4.5-16.1L404.9,202l-13.5,1
		c-0.3-2.7-0.7-5.5-1-8.3c-0.4-2.8-0.8-5.5-1.2-8.3c-0.4-2.9-0.9-5.7-1.3-8.5c-0.4-2.8-0.9-5.6-1.3-8.4l12.3-0.4l3.9,18.6
		c0.8-1.8,1.6-3.6,2.4-5.3s1.7-3.5,2.5-5.3c0.9-2,1.8-3.9,2.9-5.7l6.7,0.1c1.2,2.9,2.3,5.8,3.4,8.7c1.1,2.9,2.3,5.7,3.5,8.5
		c0.7-1.9,1.3-3.7,1.9-5.3c0.5-1.6,1-3.3,1.5-4.9c0.4-1.6,0.9-3.3,1.3-4.9c0.4-1.7,0.8-3.5,1.2-5.5L438.9,168.4z"/>
</g>
<path class="st3" d="M17.3,38c-0.1-0.1-0.1-0.2-0.2-0.3c-4.5-8.1-6.4-18.3-5.6-30.7c12.9-1.8,24.3,0.9,34,8.1c0,0,0.1,0,0.1,0.1l0,0
	l0,0c9.7,7.1,18.5,15.5,26.6,25l-34,29.1C28.7,56.5,21.8,46.1,17.3,38L17.3,38z"/>
<path class="st3" d="M28.5,60.4l16.2,21c-5.3,0.2-10.1-1.7-14.6-5.7C23.4,69.7,23.9,64.1,28.5,60.4z"/>
<path class="st3" d="M46.1,47.8c-3.6,3.3-1,9.3,4,15.4c3.5,4.3,9.5,7,17.8,8.1c0.6-6.7-1.2-12.9-5.7-18.6
	C56.8,45.6,50.4,44.6,46.1,47.8z"/>
<path class="st3" d="M66.5,32.1l17,13.7c3.5-5.6,2.9-10.2-1.6-13.7C77.5,28.8,70.7,28.8,66.5,32.1z"/>
<path class="st4" d="M29.7,29.1l-2.9,19.1l19.3-2.5l-5.8-5.9l-8.1,3.1l2.9-8.3L29.7,29.1z"/>
<path class="st4" d="M31.7,25.5l19.2-2.6l-2.7,19.3l-5.8-5.9l3.2-8l-8.3,2.8L31.7,25.5z"/>
</svg>
