<?xml version="1.0" encoding="utf-8"?>
<!-- Generator: Adobe Illustrator 23.0.1, SVG Export Plug-In . SVG Version: 6.00 Build 0)  -->
<svg version="1.1" id="Layer_1" x="0px" y="0px"
	 viewBox="0 0 370 95" enable-background="new 0 0 370 95" xml:space="preserve">
<path fill="#F46A6A" d="M19.6,45.4c-0.1-0.1-0.1-0.2-0.2-0.3C14.9,37,13,26.8,13.8,14.4c12.9-1.8,24.3,0.9,34,8.1c0,0,0.1,0,0.1,0.1
	l0,0l0,0c9.7,7.1,18.5,15.5,26.6,25l-34,29.1C31,63.9,24.1,53.5,19.6,45.4L19.6,45.4z"/>
<path fill="#F46A6A" d="M30.8,67.8l16.2,21c-5.3,0.2-10.1-1.7-14.6-5.7C25.7,77.1,26.2,71.5,30.8,67.8z"/>
<path fill="#F46A6A" d="M48.4,55.2c-3.6,3.3-1,9.3,4,15.4c3.5,4.3,9.5,7,17.8,8.1c0.6-6.7-1.2-12.9-5.7-18.6
	C59.1,53,52.7,52,48.4,55.2z"/>
<path fill="#F46A6A" d="M68.8,39.5l17,13.7c3.5-5.6,2.9-10.2-1.6-13.7C79.8,36.2,73,36.2,68.8,39.5z"/>
<path fill="#FFFFFF" d="M35.7,39.4l-2.9,19.1L52.1,56l-5.8-5.9l-8.1,3.1l2.9-8.3L35.7,39.4z"/>
<path fill="#FFFFFF" d="M37.7,35.8l19.2-2.6l-2.7,19.3l-5.8-5.9l3.2-8l-8.3,2.8L37.7,35.8z"/>
<text transform="matrix(1 0 0 1 92 71.03)" fill="#D9D9D9" font-family="'ArialMT'" font-size="61px">relaxslow</text>
</svg>
