
<svg xmlns="http://www.w3.org/2000/svg" version="1.1" xmlns:xlink="http://www.w3.org/1999/xlink" preserveAspectRatio="none" x="0px" y="0px" width="413px" height="109px" viewBox="0 0 413 109">
<defs>
<g id="Layer0_1_FILL">
<path fill="#F46A6A" stroke="none" d="
M 47.8 22.55
L 47.7 22.5
Q 33.15 11.75 13.75 14.4 12.65 32.95 19.4 45.15
L 19.55 45.45
Q 26.25 57.5 40.4 76.7
L 74.4 47.6
Q 62.2 33.25 47.8 22.55 Z"/>
</g>

<g id="Layer0_2_FILL">
<path fill="#F46A6A" stroke="none" d="
M 27.35 74.65
Q 27.55 78.85 32.45 83.2 39.1 89.15 47 88.85
L 30.8 67.85
Q 27.15 70.75 27.35 74.65 Z"/>
</g>

<g id="Layer0_3_FILL">
<path fill="#F46A6A" stroke="none" d="
M 48.35 55.2
Q 45.85 57.5 47.15 61.85 48.35 65.7 52.4 70.55 57.7 76.9 70.2 78.65 71.15 68.55 64.55 60.05 60.6 55 56 53.8 51.75 52.7 48.35 55.2 Z"/>
</g>

<g id="Layer0_4_FILL">
<path fill="#F46A6A" stroke="none" d="
M 85.7 53.3
Q 90.95 44.8 84.1 39.55 80.85 37.05 76.4 37.05 71.95 37.05 68.75 39.55
L 85.7 53.3 Z"/>
</g>

<g id="Layer0_5_FILL">
<path fill="#FFFFFF" stroke="none" d="
M 52.05 56.05
L 46.2 50.15 38.15 53.2 41.05 44.9 35.65 39.4 32.75 58.55 52.05 56.05 Z"/>
</g>

<g id="Layer0_6_FILL">
<path fill="#FFFFFF" stroke="none" d="
M 51.4 38.5
L 48.2 46.5 54.05 52.45 56.8 33.15 37.65 35.8 43.05 41.3 51.4 38.5 Z"/>
</g>
</defs>

<g transform="matrix( 1, 0, 0, 1, 100.45,2) ">
<clipPath id="Mask_Mask_1">
<rect x="-2" y="-2" width="293.05" height="96.25" fill="#FFFFFF" stroke="none"/>
</clipPath>

<text clip-path="url(#Mask_Mask_1)" writing-mode="lr"><tspan x="0" y="70.55" baseline-shift="0%" font-family="Jokerman" font-size="61" fill="#D9D9D9" xml:space="preserve">relaxslow</tspan></text>
</g>

<g transform="matrix( 1, 0, 0, 1, 6.45,2.95) ">
<use xlink:href="#Layer0_1_FILL"/>
</g>

<g transform="matrix( 1, 0, 0, 1, 6.45,2.95) ">
<use xlink:href="#Layer0_2_FILL"/>
</g>

<g transform="matrix( 1, 0, 0, 1, 6.45,2.95) ">
<use xlink:href="#Layer0_3_FILL"/>
</g>

<g transform="matrix( 1, 0, 0, 1, 6.45,2.95) ">
<use xlink:href="#Layer0_4_FILL"/>
</g>

<g transform="matrix( 1, 0, 0, 1, 6.45,2.95) ">
<use xlink:href="#Layer0_5_FILL"/>
</g>

<g transform="matrix( 1, 0, 0, 1, 6.45,2.95) ">
<use xlink:href="#Layer0_6_FILL"/>
</g>
</svg>
