<?xml version="1.0" encoding="utf-8"?>
<!-- Generator: Adobe Illustrator 23.0.1, SVG Export Plug-In . SVG Version: 6.00 Build 0)  -->
<svg version="1.2" baseProfile="tiny" id="Layer_1" xmlns="http://www.w3.org/2000/svg" xmlns:xlink="http://www.w3.org/1999/xlink"
	 x="0px" y="0px" viewBox="0 0 208 53" xml:space="preserve">
<rect fill="#FFBB00" width="208" height="52.8"/>
<polygon fill="#4A4A4A" points="133.3,1.1 115.2,51.9 128.2,51.9 145.3,1.1 "/>
<polygon fill="#4A4A4A" points="1.1,1.1 1.1,25.3 9.2,1.1 "/>
<polygon fill="#4A4A4A" points="179,1.1 160.9,51.9 173.9,51.9 190.9,1.1 "/>
<polygon fill="#4A4A4A" points="19.7,1.1 1.7,51.9 14.7,51.9 31.7,1.1 "/>
<polygon fill="#4A4A4A" points="202.9,1.1 184.8,51.9 197.8,51.9 206.9,24.8 206.9,1.1 "/>
<polygon fill="#4A4A4A" points="87.8,1.1 69.8,51.9 82.8,51.9 99.8,1.1 "/>
<polygon fill="#4A4A4A" points="42.1,1.1 24.1,51.9 37,51.9 54.1,1.1 "/>
<polygon fill="#4A4A4A" points="65,1.1 46.9,51.9 59.9,51.9 77,1.1 "/>
<polygon fill="#4A4A4A" points="156.4,1.1 138.3,51.9 151.3,51.9 168.4,1.1 "/>
<polygon fill="#4A4A4A" points="110.4,1.1 92.3,51.9 105.3,51.9 122.4,1.1 "/>
<rect y="6.9" fill="#FFBB00" width="208" height="39"/>
<text transform="matrix(1 0 0 1 93.148 22.41)" font-family="'ErasITC-Bold'" font-size="16px">UNDER</text>
<text transform="matrix(1 0 0 1 56.145 40.934)" font-family="'ErasITC-Bold'" font-size="16px">CONSTRUCTION</text>
<path vector-effect="non-scaling-stroke" fill-rule="evenodd" stroke="#000000" stroke-linecap="square" stroke-miterlimit="3" d="
	M29.8,25.3l-5.7-6l3.5-2.6c-1.8-1-3.1-1.5-4-1.3c-0.5,0.4-1.1,0.9-1.8,1.4l0,0l-2.9-3L16.6,16l2.5,2.8c-1,0.8-2.2,1.7-3.5,2.6L18,24
	l3.5-2.6l5.8,6.6L16.3,39.1l3.9,2l9.3-10.7l9.5,10.7l2.9-3.3l-9.8-10.3l5.2-5.9c1.2,0.6,3,0.4,5.5-0.4l0.8-4.1
	c-2.1,1.9-3.9,2.1-5.3,0.8c-1.4-1.3-1.4-2.9,0-4.9l0,0L34,14.6c0.3,1.9,0.7,3.5,1.2,4.6c0.1,0.2,0.1,0.3,0.2,0.5L29.8,25.3z"/>
</svg>
