<?xml version="1.0" standalone="no"?><!-- Generator: Gravit.io --><svg xmlns="http://www.w3.org/2000/svg" xmlns:xlink="http://www.w3.org/1999/xlink" style="isolation:isolate" viewBox="0 0 208 53" width="208" height="53"><defs><clipPath id="_clipPath_0fpxhsQiojTO4spH2a8ifkqw7GdrnjFN"><rect width="208" height="53"/></clipPath></defs><g clip-path="url(#_clipPath_0fpxhsQiojTO4spH2a8ifkqw7GdrnjFN)"><rect x="0" y="0" width="208" height="52.821" transform="matrix(1,0,0,1,0,0)" fill="rgb(255,187,0)"/><path d=" M 10.036 0 L 0 0 L 0 27.227 L 10.036 0 Z  M 22.123 0 L 35.822 0 L 16.353 52.821 L 1.508 52.821 L 22.123 0 Z  M 48.278 0 L 61.977 0 L 42.508 52.821 L 27.663 52.821 L 48.278 0 Z  M 74.337 0 L 88.036 0 L 68.566 52.821 L 53.722 52.821 L 74.337 0 Z  M 100.123 0 L 113.822 0 L 94.353 52.821 L 79.508 52.821 L 100.123 0 Z  M 126.278 0 L 139.977 0 L 120.508 52.821 L 105.663 52.821 L 126.278 0 Z  M 152.678 0 L 166.377 0 L 146.907 52.821 L 132.063 52.821 L 152.678 0 Z  M 178.464 0 L 192.163 0 L 172.693 52.821 L 157.849 52.821 L 178.464 0 Z  M 204.619 0 L 208 0 L 208 27.993 L 198.848 52.821 L 184.004 52.821 L 204.619 0 Z " fill-rule="evenodd" fill="rgb(74,74,74)"/><rect x="0" y="6.918" width="208" height="38.985" transform="matrix(1,0,0,1,0,0)" fill="rgb(255,187,0)"/><defs><filter id="9f8vXwmpQ1mZfs6JzTNIHLugC7xcHqcE" x="-200%" y="-200%" width="400%" height="400%" filterUnits="objectBoundingBox" color-interpolation-filters="sRGB"><feGaussianBlur xmlns="http://www.w3.org/2000/svg" in="SourceGraphic" stdDeviation="0.42936090628390283"/><feOffset xmlns="http://www.w3.org/2000/svg" dx="1" dy="1" result="pf_100_offsetBlur"/><feFlood xmlns="http://www.w3.org/2000/svg" flood-color="#000000" flood-opacity="0.65"/><feComposite xmlns="http://www.w3.org/2000/svg" in2="pf_100_offsetBlur" operator="in" result="pf_100_dropShadow"/><feBlend xmlns="http://www.w3.org/2000/svg" in="SourceGraphic" in2="pf_100_dropShadow" mode="normal"/></filter></defs><g filter="url(#9f8vXwmpQ1mZfs6JzTNIHLugC7xcHqcE)"><g transform="matrix(1,0,0,1,47,8.459)"><text transform="matrix(1,0,0,1,46.148,13.951)" style="font-family:'Eras Bold ITC';font-weight:400;font-size:16px;font-style:normal;fill:#000000;stroke:none;">UNDER </text><text transform="matrix(1,0,0,1,9.145,32.475)" style="font-family:'Eras Bold ITC';font-weight:400;font-size:16px;font-style:normal;fill:#000000;stroke:none;">CONSTRUCTION</text></g></g><defs><filter id="yidjdmdvDZ3iesd6JIPgOvfD7u5PUeCw" x="-200%" y="-200%" width="400%" height="400%" filterUnits="objectBoundingBox" color-interpolation-filters="sRGB"><feGaussianBlur xmlns="http://www.w3.org/2000/svg" in="SourceGraphic" stdDeviation="0.42936090628390283"/><feOffset xmlns="http://www.w3.org/2000/svg" dx="1" dy="1" result="pf_100_offsetBlur"/><feFlood xmlns="http://www.w3.org/2000/svg" flood-color="#000000" flood-opacity="0.65"/><feComposite xmlns="http://www.w3.org/2000/svg" in2="pf_100_offsetBlur" operator="in" result="pf_100_dropShadow"/><feBlend xmlns="http://www.w3.org/2000/svg" in="SourceGraphic" in2="pf_100_dropShadow" mode="normal"/></filter></defs><g filter="url(#yidjdmdvDZ3iesd6JIPgOvfD7u5PUeCw)"><path d=" M 29.833 25.309 L 24.159 19.341 L 27.653 16.724 Q 25.026 15.171 23.61 15.443 Q 22.804 16.062 21.781 16.84 L 21.781 16.84 L 18.904 13.814 L 16.622 15.996 L 19.142 18.839 Q 17.572 20.025 15.671 21.452 L 17.953 23.992 L 21.413 21.4 L 27.225 27.954 L 16.282 39.055 L 20.149 41.091 L 29.408 30.416 L 38.874 41.091 L 41.726 37.818 L 31.927 27.512 L 37.079 21.572 Q 38.877 22.431 42.541 21.142 L 43.355 17.071 Q 40.152 19.867 38.062 17.885 Q 35.972 15.904 38.062 13 L 38.062 13 L 33.991 14.628 Q 34.415 17.503 35.166 19.232 C 35.235 19.389 35.305 19.54 35.378 19.683 L 29.833 25.309 Z " fill-rule="evenodd" fill="rgb(0,0,0)" vector-effect="non-scaling-stroke" stroke-width="1" stroke="rgb(0,0,0)" stroke-linejoin="miter" stroke-linecap="square" stroke-miterlimit="3"/></g></g></svg>