<?xml version="1.0" encoding="utf-8"?>
<!-- Generator: Adobe Illustrator 23.0.1, SVG Export Plug-In . SVG Version: 6.00 Build 0)  -->
<svg version="1.2" baseProfile="tiny" id="Layer_1" xmlns="http://www.w3.org/2000/svg" xmlns:xlink="http://www.w3.org/1999/xlink" x="0px" y="0px" viewBox="0 0 208 53" xml:space="preserve">
	<rect fill="#FFBB00" width="208" height="52.8" />
	<path fill-rule="evenodd" fill="#4A4A4A" d="M10,0H0v27.2L10,0z M22.1,0h13.7L16.4,52.8H1.5L22.1,0z M48.3,0H62L42.5,52.8H27.7
	L48.3,0z M74.3,0H88L68.6,52.8H53.7L74.3,0z M100.1,0h13.7L94.4,52.8H79.5L100.1,0z M126.3,0H140l-19.5,52.8h-14.8L126.3,0z
	 M152.7,0h13.7l-19.5,52.8h-14.8L152.7,0z M178.5,0h13.7l-19.5,52.8h-14.8L178.5,0z M204.6,0h3.4v28l-9.2,24.8H184L204.6,0z" />
	<rect y="6.9" fill="#FFBB00" width="208" height="39" />
	<g transform="matrix(1,0,0,1,47,8.459)">
		<text transform="matrix(1 0 0 1 46.148 13.951)" font-family="'ErasITC-Bold',monospace" font-size="16px">UNDER</text>
		<text transform="matrix(1 0 0 1 9.145 32.475)" font-family="'ErasITC-Bold',monospace" font-size="16px">CONSTRUCTION</text>
	</g>
	<path vector-effect="non-scaling-stroke" fill-rule="evenodd" stroke="#000000" stroke-linecap="square" stroke-miterlimit="3" d="
	M29.8,25.3l-5.7-6l3.5-2.6c-1.8-1-3.1-1.5-4-1.3c-0.5,0.4-1.1,0.9-1.8,1.4l0,0l-2.9-3L16.6,16l2.5,2.8c-1,0.8-2.2,1.7-3.5,2.6L18,24
	l3.5-2.6l5.8,6.6L16.3,39.1l3.9,2l9.3-10.7l9.5,10.7l2.9-3.3l-9.8-10.3l5.2-5.9c1.2,0.6,3,0.4,5.5-0.4l0.8-4.1
	c-2.1,1.9-3.9,2.1-5.3,0.8c-1.4-1.3-1.4-2.9,0-4.9l0,0L34,14.6c0.3,1.9,0.7,3.5,1.2,4.6c0.1,0.2,0.1,0.3,0.2,0.5L29.8,25.3z" />
</svg>