<?xml version="1.0" encoding="utf-8"?>
<!-- Generator: Adobe Illustrator 23.0.1, SVG Export Plug-In . SVG Version: 6.00 Build 0)  -->
<svg version="1.1" id="Layer_1" xmlns="http://www.w3.org/2000/svg" xmlns:xlink="http://www.w3.org/1999/xlink" x="0px" y="0px"
	 viewBox="0 0 56.7 77.5" style="enable-background:new 0 0 56.7 77.5;" xml:space="preserve">
<style type="text/css">
	.st0{fill:#677B91;}
	.st1{fill:#56677A;}
	.st2{fill:#65758A;}
	.st3{fill:#00A99D;}
	.st4{fill:#005F58;}
	.st5{fill:#567A99;}
</style>
<polygon class="st0" points="24.7,5.5 33,5.5 33,36 25.5,36 "/>
<rect x="35.1" y="17.9" class="st0" width="5.1" height="14.8"/>
<rect x="17.7" y="17.9" class="st0" width="5.1" height="14.8"/>
<polygon class="st1" points="22.8,22.9 25.2,22.9 25.4,28.9 22.8,28.9 "/>
<polygon class="st1" points="32.9,22.9 35.3,22.9 35.4,28.9 32.9,28.9 "/>
<polygon class="st2" points="-19.8,0.8 -16.9,0.8 -14.4,29.3 -22.2,29.3 "/>
<polygon class="st0" points="-30.3,34.9 -27.5,20.9 -8.2,20.9 -6.4,34.9 "/>
<path class="st3" d="M0,44.9l9.4-10h37.1l10.2,10v32.6H0V44.9z"/>
<rect x="10.2" y="46.9" class="st4" width="11.3" height="2.8"/>
<rect x="10.2" y="51.6" class="st4" width="11.3" height="2.8"/>
<rect x="10.2" y="56.2" class="st4" width="11.3" height="2.8"/>
<polygon class="st0" points="68.4,5.5 76.7,5.5 76.7,32.7 69.2,32.7 "/>
<rect x="78.7" y="17.9" class="st0" width="5.1" height="14.8"/>
<rect x="61.4" y="17.9" class="st0" width="5.1" height="14.8"/>
<polygon class="st0" points="66.5,22.9 68.9,22.9 69.1,28.9 66.5,28.9 "/>
<polygon class="st0" points="76.2,22.9 78.6,22.9 78.7,28.9 76.2,28.9 "/>
<polygon class="st5" points="65.5,32.8 67.2,25.1 78.5,25.1 79.6,32.8 "/>
<polygon class="st5" points="18.6,34.9 23.5,25.1 34.9,25.1 38.8,34.9 "/>
</svg>
